PathFileType	4	(X/Y/Z)	Kaydara																																																																																																																									
DataRate	CameraRate	NumFrames	NumMarkers	Units	OrigDataRate	OrigDataStartFrame	OrigNumFrames																																																																																																																					
30	30	8	41	mm	30	109	145																																																																																																																					
Frame#	Time	NABA_LFHD			NABA_RFHD			NABA_LBHD			NABA_RBHD			NABA_LFTShould			NABA_RFTShould			NABA_LRRShould			NABA_RRRShould			NABA_T10			NABA_STRN			NABA_TRUN			NABA_LSHO			NABA_LUPA			NABA_LELB			NABA_LFRM			NABA_LWRA			NABA_LWRB			NABA_LFIN			NABA_RSHO			NABA_RUPA			NABA_RELB			NABA_RFRM			NABA_RWRA			NABA_RWRB			NABA_RFIN			NABA_LFWT			NABA_RFWT			NABA_LBWT			NABA_RBWT			NABA_LTHI			NABA_LKNE			NABA_LSHN			NABA_LANK			NABA_LHEE			NABA_LTOE			NABA_RTHI			NABA_RKNE			NABA_RSHN			NABA_RANK			NABA_RHEE			NABA_RTOE		
		X1	Y1	Z1	X2	Y2	Z2	X3	Y3	Z3	X4	Y4	Z4	X5	Y5	Z5	X6	Y6	Z6	X7	Y7	Z7	X8	Y8	Z8	X9	Y9	Z9	X10	Y10	Z10	X11	Y11	Z11	X12	Y12	Z12	X13	Y13	Z13	X14	Y14	Z14	X15	Y15	Z15	X16	Y16	Z16	X17	Y17	Z17	X18	Y18	Z18	X19	Y19	Z19	X20	Y20	Z20	X21	Y21	Z21	X22	Y22	Z22	X23	Y23	Z23	X24	Y24	Z24	X25	Y25	Z25	X26	Y26	Z26	X27	Y27	Z27	X28	Y28	Z28	X29	Y29	Z29	X30	Y30	Z30	X31	Y31	Z31	X32	Y32	Z32	X33	Y33	Z33	X34	Y34	Z34	X35	Y35	Z35	X36	Y36	Z36	X37	Y37	Z37	X38	Y38	Z38	X39	Y39	Z39	X40	Y40	Z40	X41	Y41	Z41
																																																																																																																												
109	3.61	273.68893	1522.02927	850.93826	102.45273	1516.5535	866.50925	291.51922	1503.21152	726.67175	71.68079	1512.15424	768.86887	244.4342	1275.69862	784.61922	98.10967	1263.12027	774.2659	256.03613	1332.50381	670.51498	111.77045	1335.37933	668.80699	197.21615	1169.49097	592.55054	176.3969	1220.64835	825.00336	173.58908	1124.6489	873.60435	342.98878	1299.87289	742.53616	406.02856	1107.08397	645.73837	443.43559	1017.22031	649.19388	440.38368	925.71793	649.48013	402.33421	816.01387	778.58261	472.38853	811.02219	762.7697	475.36461	801.87256	827.56935	25.8473	1308.18893	720.66727	30.95412	1219.26147	564.88731	-42.26901	1124.41833	477.05025	-40.01458	1021.79398	437.20329	1.15782	876.25496	490.57888	-62.61029	870.75645	452.29225	-73.66439	844.69696	484.93656	328.38158	891.80237	784.08859	57.73845	877.75497	809.59969	253.83228	934.9086	618.55511	84.54315	954.09378	630.9798	307.00933	628.34137	587.93114	294.98287	469.08024	595.46894	225.25642	278.83551	548.67249	236.23396	163.53474	425.87425	174.94392	143.4669	358.50662	192.59907	56.96404	510.06271	61.39388	588.22426	750.77919	85.96468	476.96697	914.15176	99.28236	317.13985	959.07272	100.11412	117.61333	983.80127	144.30962	50.12612	944.91867	122.66462	91.68714	1119.0419
110	3.643	276.03783	1524.41071	907.75528	104.87346	1518.85483	922.80106	294.13479	1506.02188	783.49716	74.53391	1514.80148	825.00061	246.83271	1280.73227	843.2222	101.64548	1265.72647	833.68744	256.11679	1336.02554	725.46616	110.67547	1337.07855	726.42052	195.5113	1170.57671	651.01883	180.21206	1223.34846	884.38774	177.90339	1128.08678	934.03763	343.43822	1306.3472	801.06079	414.32491	1105.96298	723.16391	446.34247	1014.90425	731.81168	442.0903	924.26727	729.09584	395.12589	810.1194	850.28954	466.14353	805.42717	839.45381	464.07944	795.11635	903.83911	26.53377	1308.95599	784.37454	11.86365	1205.28381	629.37336	-59.63356	1096.36559	564.33273	-57.68806	994.14955	530.49465	-5.74928	853.45482	585.58804	-74.62898	844.65393	557.84081	-80.15233	822.56332	595.64354	327.23808	893.86124	843.73634	57.7852	880.2681	870.5307	251.25824	936.83372	678.02544	81.33929	956.70349	691.4682	305.97658	630.01583	648.37982	300.67677	470.76046	657.742	235.26861	283.50531	593.00953	245.22579	184.81901	455.46295	184.94728	175.62674	387.36725	196.2779	57.4065	520.82291	62.68867	592.38964	802.52213	87.89418	474.73618	962.21176	102.69899	313.12325	998.80165	105.8289	112.27114	1006.40656	149.16592	55.52464	959.64981	125.8449	62.45981	1141.06285
111	3.677	278.2197	1536.70471	966.07864	107.11782	1529.0654	980.45174	296.56479	1522.22839	841.46072	76.97306	1527.83569	882.68356	250.90328	1295.05661	902.35405	106.32713	1280.31342	894.02275	258.29493	1349.991	784.27193	112.94431	1349.02069	784.64592	197.62035	1183.60428	709.24385	184.6979	1236.81267	945.00771	182.56609	1142.57935	996.39252	346.50558	1320.02808	861.23581	414.97986	1111.11229	800.42816	441.27972	1018.7072	813.77434	437.63596	930.59395	800.04166	387.49695	797.89726	899.69986	459.62078	795.50919	890.42488	451.19064	766.72684	951.24123	30.50681	1319.53445	846.54808	-13.32302	1186.23932	701.62621	-71.28114	1061.27205	669.19777	-72.97163	962.38091	640.69595	-14.54943	824.53796	690.06851	-87.19387	815.0621	673.42911	-85.58485	792.16034	711.29639	322.58305	903.23242	904.011	53.4271	895.52086	924.47632	255.1136	947.68295	737.94418	85.87628	974.3605	747.80396	308.61334	630.30113	721.05225	310.24454	472.99652	742.1891	250.42727	289.58883	661.52367	259.36604	213.63813	509.71794	199.74367	216.21538	445.33642	201.06813	57.36053	539.53938	56.0534	606.58371	849.82475	87.60389	484.95434	1003.3876	103.25493	313.73663	1025.9581	106.12144	112.7751	1016.92635	147.23264	58.60514	963.23799	136.46819	58.59852	1143.29712
112	3.71	280.6251	1549.6579	1021.819	109.53835	1541.08627	1035.6395	299.52145	1534.29886	897.36351	79.80073	1538.94623	937.75383	252.57227	1310.10574	962.43286	111.12466	1293.81256	954.0419	261.98191	1363.10883	845.70511	116.26698	1360.39093	843.7265	200.39278	1197.48756	766.97876	187.70906	1254.34486	1007.20108	186.51909	1159.1243	1058.405	348.89244	1333.47931	922.93655	417.44442	1119.77219	874.12033	435.22709	1024.97658	891.51291	434.50958	942.98546	862.0118	381.54602	791.46011	925.57274	454.96857	792.94418	924.69482	436.13224	742.29645	971.65665	34.26299	1330.1268	905.73914	-22.40614	1162.93068	788.17467	-66.36072	1033.49716	785.56412	-75.65268	939.16824	760.56389	-23.59645	798.45741	805.75401	-97.18608	792.64091	795.67032	-92.37565	763.57048	830.46211	316.98141	911.68175	959.01596	51.62139	915.47745	978.37967	258.4754	959.50256	795.21187	88.92053	990.71686	801.99394	314.70495	623.88996	799.89792	319.5458	469.97215	841.60248	259.7559	294.20156	752.59193	271.62115	235.43674	594.53724	215.61993	249.7473	529.8045	212.58041	76.4953	596.22383	51.39757	619.72328	880.96214	84.15866	482.59251	1018.98323	101.45444	313.86646	1036.01974	104.75113	113.2233	1019.92813	145.03428	59.81004	963.63693	135.42334	54.51231	1144.09912
113	3.743	282.8767	1559.1185	1076.5889	111.6431	1550.85159	1090.11009	302.14968	1541.38168	952.54044	82.23433	1546.83502	992.23732	254.87583	1321.67938	1021.18294	114.14113	1303.33282	1013.80188	263.3185	1370.79391	904.2923	116.74566	1363.45596	902.58698	199.96273	1203.10478	826.13335	192.56966	1269.25797	1069.57474	192.88174	1171.73149	1118.15826	352.34959	1342.62726	980.26062	416.1105	1124.94545	941.88538	427.71008	1031.36711	953.31589	430.42168	955.47401	914.10568	384.22527	794.26697	948.01033	455.98969	799.71756	955.65178	430.74223	733.36235	985.9864	34.09947	1334.89883	965.81161	-12.71804	1147.2245	872.95563	-53.33998	1022.00691	890.39177	-65.43853	927.33589	873.86337	-24.99282	787.39975	932.56035	-98.94951	785.02708	917.28836	-95.90766	754.25117	953.12859	315.72432	915.05257	1009.45282	52.07614	920.85701	1029.90715	260.54228	966.59538	848.65883	86.69136	1001.32698	856.5844	319.92176	619.20349	880.69908	324.86965	470.75588	947.20573	261.50503	298.05914	858.89633	279.06511	242.73676	700.23743	221.35616	254.18257	633.03844	235.79266	88.3856	710.32257	50.5119	628.52058	906.66763	85.30294	479.22092	1032.75208	101.20872	313.74414	1041.19354	104.65613	113.61212	1019.95926	144.68142	60.67921	962.64313	140.30049	52.96075	1144.52095
114	3.777	285.21082	1564.1954	1132.34924	114.02814	1554.90555	1146.14159	304.48349	1544.30313	1008.60268	84.50312	1548.95966	1048.40195	260.20544	1325.60089	1079.46884	119.35685	1305.70267	1076.47575	263.32355	1372.55508	960.53421	117.7126	1366.97678	966.90292	196.97392	1208.45634	883.29941	199.22293	1272.76367	1131.66786	201.80981	1173.18092	1176.98441	356.81053	1344.82468	1035.33989	413.5318	1126.75537	986.22665	424.16557	1033.54958	995.00282	423.5144	962.07039	950.35286	382.45155	797.58247	975.34149	454.67613	804.57245	976.55113	436.11897	736.24687	1003.40996	37.16159	1336.62476	1030.90401	-6.8576	1140.94826	950.50957	-47.82493	1014.09119	979.85519	-55.85831	916.33743	976.71852	-13.34796	789.35326	1059.66812	-88.06093	781.93474	1044.78874	-83.78732	758.74779	1085.95818	315.82029	914.07516	1059.77463	50.63747	912.73575	1076.48636	258.36813	968.08449	897.32918	85.28464	1005.18166	907.25464	322.81204	618.2793	966.15318	322.82673	478.24944	1050.98038	263.24253	298.37936	974.46335	287.09705	227.60958	823.36723	229.11829	229.61952	751.46858	254.64764	87.60738	858.65616	51.26273	633.72425	939.85687	87.43777	477.99603	1058.34023	104.95615	312.53607	1057.38197	106.64331	113.55993	1026.19637	146.58423	63.14068	965.44739	143.11306	51.91311	1146.14075
115	3.81	287.84328	1561.5506	1188.36258	116.50825	1554.47189	1201.98364	307.45596	1539.52301	1065.21095	87.35468	1547.10815	1104.17747	264.60453	1317.74765	1138.36746	125.49905	1299.29718	1139.13841	264.83179	1374.00558	1023.46642	117.24188	1366.71051	1029.99084	195.62719	1212.02637	937.7092	205.07067	1263.94211	1190.59021	209.01291	1162.30591	1231.0614	358.54671	1341.76407	1093.47855	413.94104	1130.61478	1021.90613	426.62903	1033.33328	1024.11209	421.71963	965.4129	978.92235	380.02621	800.45555	1000.03387	452.30858	806.31973	996.88889	438.75904	741.31851	1025.24803	42.18637	1333.32855	1100.70847	-16.46996	1140.5513	1022.44484	-57.49484	1011.63528	1059.97231	-60.26324	911.02921	1080.99464	10.06905	808.63602	1175.61142	-64.60971	793.52798	1179.53476	-48.34215	777.10945	1222.63184	315.52057	911.82472	1114.67163	50.96623	913.88199	1125.56252	257.29549	967.48039	947.21207	89.85263	1005.43755	957.02286	321.98101	617.46166	1046.65222	316.66849	487.28355	1144.90738	264.73612	296.31748	1093.87062	296.20382	201.10481	957.2467	240.69593	186.66471	883.72078	265.16972	76.95239	1020.8287	54.25971	635.46307	980.61249	92.09534	475.08904	1092.50916	110.94409	307.91647	1081.36925	111.82344	111.65402	1035.32677	151.83737	65.77724	970.18288	146.46594	51.32922	1148.55568
116	3.843	289.86094	1556.12305	1243.09776	118.44246	1550.61447	1255.2198	310.76775	1531.7894	1121.05804	90.34973	1541.87073	1157.30568	269.24622	1308.80127	1191.60423	127.17399	1290.6694	1197.37305	263.51887	1371.12366	1079.02855	118.456	1363.49579	1089.90929	194.42684	1210.21835	990.72433	211.03828	1247.89406	1240.47798	216.22608	1146.40411	1280.48325	360.15781	1336.26526	1146.59752	419.67117	1128.74916	1061.22116	430.69439	1031.62155	1060.09842	428.06961	966.38451	1011.6671	380.41321	801.89903	1020.62286	452.51198	805.62569	1022.2625	434.21738	739.3335	1046.01547	48.86773	1328.18344	1164.45435	-26.95383	1131.88843	1089.97498	-65.27804	1007.52457	1137.21039	-57.2524	911.4975	1174.52965	37.40602	830.60753	1269.37836	-34.19739	812.61162	1289.31519	-8.40383	805.42336	1331.17966	317.02696	907.05925	1172.03575	53.22327	911.35033	1178.19359	264.5904	964.14597	999.44649	94.19998	1001.13319	1010.48988	319.35295	614.54506	1121.12831	308.79686	491.54907	1225.51521	264.43996	292.71212	1209.47647	302.03779	169.60827	1100.57014	249.61323	136.56957	1029.45259	272.0993	66.2024	1190.15015	57.14644	635.78838	1025.67558	93.8901	470.2462	1130.73364	113.59696	301.55373	1106.8251	113.5027	110.37406	1042.29881	153.90299	68.31321	973.40958	148.38354	51.04269	1148.40958
